<svg version="1.1" id="Layer_1" xmlns="http://www.w3.org/2000/svg" xmlns:xlink="http://www.w3.org/1999/xlink" x="0px" y="0px"
	 width="100%" viewBox="0 0 368 368" enable-background="new 0 0 368 368" xml:space="preserve">
<path fill="#000000" opacity="1.000000" stroke="none" 
	d="
M25.649792,213.999329 
	C25.649736,200.003983 25.980961,186.498047 25.557970,173.015793 
	C25.126003,159.247513 26.873299,145.886887 30.349903,132.592697 
	C34.088772,118.295616 36.949879,103.768219 40.723301,89.481133 
	C45.732719,70.514259 58.662880,60.882168 78.274269,60.873676 
	C145.584503,60.844536 212.894974,60.929733 280.204742,60.746464 
	C293.480927,60.710316 302.531464,66.104149 308.450134,78.063652 
	C320.708862,102.834061 333.376373,127.403244 346.002289,151.990204 
	C350.269836,160.300613 352.238373,168.920746 352.467163,178.323196 
	C353.050781,202.305023 352.968658,226.285339 353.102386,250.266663 
	C353.114441,252.428925 353.138184,254.614838 352.859955,256.751129 
	C351.186188,269.601990 342.177124,276.191528 329.311096,274.243866 
	C326.521912,273.821625 325.949463,272.112183 325.529755,269.814178 
	C323.395020,258.126984 318.380249,248.066727 308.792786,240.633972 
	C282.730164,220.428787 242.742981,231.188492 234.218506,263.871582 
	C233.883392,265.156464 233.365570,266.404846 233.144180,267.706177 
	C232.287079,272.744202 229.224808,274.406494 224.310730,274.375916 
	C204.651474,274.253601 184.989822,274.470764 165.331390,274.297363 
	C160.587982,274.255554 158.607315,275.025787 158.015823,280.632172 
	C156.167328,298.152649 147.255020,311.432220 130.601776,318.083466 
	C114.118294,324.666931 98.153122,322.894287 84.056587,311.584106 
	C74.210335,303.684143 68.841179,293.085205 68.788719,280.369293 
	C68.767860,275.313385 66.883522,274.380829 62.333389,274.294464 
	C50.510868,274.070007 38.696758,275.581055 26.887922,274.441376 
	C19.528652,273.731171 16.684254,270.470032 16.661108,263.067780 
	C16.642355,257.069824 16.782228,251.068466 16.620110,245.074875 
	C16.507812,240.923248 18.131247,237.904205 21.823898,236.227463 
	C24.868679,234.844879 25.832308,232.709061 25.701250,229.491211 
	C25.498020,224.501450 25.649143,219.497238 25.649792,213.999329 
M94.500427,84.392082 
	C88.837372,84.392860 83.172615,84.305611 77.511642,84.414642 
	C68.588295,84.586502 63.980877,88.139557 61.867393,96.785698 
	C58.870506,109.045799 56.061462,121.352455 53.247417,133.656433 
	C50.658772,144.974854 46.694359,156.096191 46.500313,167.803299 
	C46.158051,188.452881 46.463642,209.112488 46.280201,229.765961 
	C46.237610,234.561752 48.407040,236.164322 52.673943,235.571991 
	C62.467552,234.212448 72.303162,234.814148 82.105247,235.012009 
	C88.485435,235.140793 94.495804,234.205811 100.727837,232.837723 
	C120.472801,228.503159 138.278931,233.208588 150.730591,250.242523 
	C152.671219,252.897324 154.754349,253.706909 157.835388,253.691299 
	C176.324432,253.597641 194.814240,253.662659 213.303711,253.634781 
	C220.046738,253.624603 220.647995,252.981216 220.649551,246.144165 
	C220.661148,194.839905 220.666382,143.535645 220.668167,92.231377 
	C220.668427,84.444313 220.637466,84.399872 212.933762,84.397949 
	C173.789276,84.388176 134.644806,84.393135 94.500427,84.392082 
M240.327606,118.499947 
	C240.330475,125.332909 240.550217,132.175156 240.258179,138.995483 
	C240.070877,143.370056 241.575928,144.771774 245.970062,144.736267 
	C268.467346,144.554413 290.966888,144.666702 313.465546,144.616592 
	C315.007751,144.613159 316.833008,145.324326 318.071716,143.584686 
	C317.977631,143.078201 317.991516,142.541412 317.782135,142.114029 
	C308.917175,124.020493 300.039215,105.933304 291.142517,87.855347 
	C289.798584,85.124557 287.459320,84.340248 284.526672,84.356789 
	C271.527832,84.430122 258.527100,84.491104 245.529877,84.329330 
	C241.674728,84.281349 240.181015,85.532356 240.269577,89.503036 
	C240.477615,98.831154 240.332245,108.167152 240.327606,118.499947 
M93.296944,276.666870 
	C91.725525,290.054352 107.058052,300.013702 117.224747,296.926483 
	C126.778114,294.025513 134.419205,285.161102 133.357834,276.340454 
	C132.079987,265.720703 123.461121,257.509491 113.504852,257.426392 
	C103.546082,257.343323 94.430824,265.642792 93.296944,276.666870 
z"/>
<path fill="#000000" opacity="1.000000" stroke="none" 
	d="
M291.411987,238.176056 
	C313.166351,245.056839 324.163666,264.300507 320.986847,285.806244 
	C317.896973,306.723358 299.450836,321.559540 278.385986,321.292755 
	C257.141846,321.023712 238.344711,304.270813 236.702484,284.142456 
	C234.757126,260.298798 249.308731,240.426971 271.706573,236.936127 
	C278.092285,235.940872 284.668945,236.216568 291.411987,238.176056 
M291.875366,263.603546 
	C286.565094,259.114441 280.553040,257.309448 273.795929,259.409729 
	C265.959198,261.845551 261.025421,267.295746 259.633972,275.317047 
	C258.272278,283.166718 261.088165,289.798889 267.509277,294.587372 
	C273.961761,299.399200 280.929016,300.005707 288.129120,296.229797 
	C300.284515,289.855133 302.237183,275.090851 291.875366,263.603546 
z"/>
<path fill="#000000" opacity="1.000000" stroke="none" 
	d="
M75.648117,160.999908 
	C75.646950,146.511673 75.639236,132.523468 75.648026,118.535248 
	C75.652878,110.812073 76.409019,110.087898 84.283112,110.130989 
	C111.909775,110.282181 139.536392,110.443840 167.163132,110.579498 
	C175.985535,110.622818 184.813309,110.777214 193.628754,110.529259 
	C198.144592,110.402229 200.121017,112.240440 200.122574,116.576912 
	C200.132812,145.219086 200.202896,173.861496 200.099579,202.503265 
	C200.078156,208.440140 198.067444,210.187180 192.128708,210.198029 
	C155.493073,210.264984 118.857338,210.300980 82.221634,210.297165 
	C76.560043,210.296570 75.673920,209.302032 75.661362,203.464310 
	C75.631256,189.476227 75.649643,175.488052 75.648117,160.999908 
M117.499374,198.051682 
	C119.722870,199.113922 122.093010,198.478867 124.393723,198.646988 
	C128.224319,198.926910 129.959625,197.123535 129.773514,193.316162 
	C129.684143,191.487427 129.748917,189.651688 129.691116,187.820770 
	C129.628159,185.826309 128.411240,184.926819 126.577942,184.509720 
	C119.385582,182.873337 116.280159,185.284805 116.353523,192.559082 
	C116.370132,194.205734 116.073685,195.904495 117.499374,198.051682 
M184.794250,184.596771 
	C182.816727,184.529007 180.839279,184.410233 178.861633,184.406708 
	C176.519547,184.402542 173.680359,184.303741 173.573090,187.443207 
	C173.456085,190.867264 171.787567,194.864441 175.498917,197.543594 
	C178.621857,199.797989 185.864059,198.770187 186.440094,195.875244 
	C187.159607,192.259033 187.957092,188.400208 184.794250,184.596771 
M91.228905,198.506821 
	C92.216591,198.549210 93.204163,198.624908 94.191994,198.628525 
	C100.260223,198.650742 101.030228,197.892532 101.076767,191.866287 
	C101.084412,190.877335 101.063622,189.887085 101.019974,188.899033 
	C100.929436,186.849731 100.752846,184.593979 98.097580,184.547653 
	C94.931572,184.492447 90.432274,182.907959 89.074722,186.354782 
	C87.653717,189.962723 86.637428,194.699295 91.228905,198.506821 
M157.662292,193.910690 
	C156.600388,190.585983 160.749985,184.902679 153.431259,184.412888 
	C146.089050,183.921555 145.149323,184.869827 145.227478,192.360977 
	C145.255051,195.004974 144.792801,198.093979 148.636887,198.392044 
	C152.125565,198.662537 156.233978,199.922501 157.662292,193.910690 
M174.463715,134.201233 
	C177.513947,135.579407 180.698776,134.820877 183.811340,134.669266 
	C186.884735,134.519562 186.929626,132.011154 186.718842,129.849121 
	C186.467911,127.275284 188.178558,123.834129 184.333466,122.542191 
	C176.594772,119.942009 173.050003,122.615158 173.382278,130.667786 
	C173.422562,131.643784 173.714462,132.609406 174.463715,134.201233 
M118.003044,134.325287 
	C126.675362,138.233826 130.466583,135.721420 129.778809,126.532570 
	C129.654495,124.871590 129.674576,123.249199 127.642799,122.516464 
	C120.874794,120.075653 116.864166,122.963791 117.154602,130.181625 
	C117.200813,131.330200 117.424088,132.471664 118.003044,134.325287 
M157.582428,132.758865 
	C157.626007,130.611252 157.684036,128.463791 157.708878,126.315956 
	C157.731705,124.341698 157.310211,122.333298 154.914108,122.491295 
	C151.803665,122.696411 148.122009,120.780708 145.717453,124.158424 
	C144.391571,126.020912 145.341370,134.587128 146.843674,134.942902 
	C150.422394,135.790451 154.259201,137.060440 157.582428,132.758865 
M95.509048,135.627014 
	C100.918556,136.276016 101.879868,133.231735 101.724419,128.668152 
	C101.595215,124.875015 101.096352,122.050957 96.328484,122.370605 
	C93.061165,122.589653 89.489601,121.727997 89.198502,126.896034 
	C88.812134,133.755508 89.368355,134.904907 95.509048,135.627014 
z"/>
</svg>